<?xml version="1.0" encoding="UTF-8" standalone="no"?><!DOCTYPE svg PUBLIC "-//W3C//DTD SVG 1.1//EN" "http://www.w3.org/Graphics/SVG/1.1/DTD/svg11.dtd"><svg width="100%" height="100%" viewBox="0 0 112 183" version="1.1" xmlns="http://www.w3.org/2000/svg" xmlns:xlink="http://www.w3.org/1999/xlink" xml:space="preserve" xmlns:serif="http://www.serif.com/" style="fill-rule:evenodd;clip-rule:evenodd;stroke-linejoin:round;stroke-miterlimit:2;"><path d="M57.898,0.058c-1.357,-0.038 -2.714,0.107 -4.032,0.431c-5.859,1.441 -22.66,5.573 -22.66,5.573c0,-0 -9.673,7.522 -16.135,12.548c-3.727,2.898 -6.692,6.66 -8.641,10.96c-2.754,6.077 -6.43,14.189 -6.43,14.189c0,-0 0.361,14.735 0.542,22.128c0.067,2.736 0.548,5.445 1.427,8.037c3.401,10.031 12.169,35.898 12.169,35.898l38.186,64.083l3.293,8.189l45.225,-76.811l10.537,-29.582l0.035,-27.227l-7.76,-22.483l-16.912,-16.463l-17.599,-9.153c0,-0 -7.518,-0.212 -11.245,-0.317Z" style="fill:#92400e;"/><path d="M57.053,6.757c-1.155,-0.026 -2.309,0.101 -3.431,0.377c-5.247,1.293 -20.907,5.154 -20.907,5.154c0,0 -8.695,6.703 -14.598,11.255c-3.501,2.699 -6.289,6.214 -8.12,10.238c-2.482,5.455 -5.724,12.578 -5.724,12.578c-0,0 0.407,13.024 0.617,19.731c0.081,2.58 0.559,5.132 1.417,7.566c3.219,9.124 11.32,32.088 11.32,32.088l35.424,57.492l3.07,7.354l41.094,-69.336l9.509,-26.671l-0.121,-24.502l-7.252,-20.196l-15.621,-14.736l-16.211,-8.154c-0,0 -7.094,-0.16 -10.465,-0.236Z" style="fill:#e9900b;"/><path d="M55.339,28.234c16.679,-0.042 30.287,13.464 30.369,30.143c0.082,16.679 -13.392,30.254 -30.071,30.296c-16.679,0.042 -30.287,-13.464 -30.369,-30.143c-0.082,-16.679 13.392,-30.254 30.071,-30.296Z" style="fill:#fff;"/><g transform="matrix(0.999537,-0.030426,0.030426,0.999537,26.908323,-36.371809)"><g transform="matrix(32.209163,0,0,32.209163,44.410548,106.602444)"></g><text x="5.824px" y="106.602px" style="font-family:'Ubuntu-Regular', 'Ubuntu', sans-serif;font-size:32.209px;fill:#b45309;">K<tspan x="25.407px " y="106.602px ">o</tspan></text></g></svg>